/* XPM */
static char *goto_point_lax[] = {
/* columns rows colors chars-per-pixel */
"24 24 2 1 ",
"  c black",
". c None",
/* pixels */
"..........    ..........",
".......... .. ..........",
".......... .. ..........",
".......... .. ..........",
"......     ..     ......",
".......  ......  .......",
"........  ....  ........",
".........  ..  .........",
"..........    ..........",
"...........  ...........",
"........................",
"..                    ..",
"..                    ..",
"........................",
"...........  ...........",
"..........    ..........",
".........      .........",
"........        ........",
".......          .......",
"......            ......",
"..........    ..........",
"..........    ..........",
"..........    ..........",
"..........    .........."
};
