/* XPM */
static char *list_options[] = {
/* columns rows colors chars-per-pixel */
"24 24 2 1 ",
"  c black",
". c None",
/* pixels */
"........................",
"........................",
"........................",
"...............  .......",
"...............  .......",
"...          ..      ...",
"...          ..      ...",
"...............  .......",
"...............  .......",
".......  ...............",
".......  ...............",
"...      ..          ...",
"...      ..          ...",
".......  ...............",
".......  ...............",
"...........  ...........",
"...........  ...........",
"...      ..          ...",
"...      ..          ...",
"...........  ...........",
"...........  ...........",
"........................",
"........................",
"........................"
};
