/* XPM */
static char *reload[] = {
/* columns rows colors chars-per-pixel */
"24 24 2 1 ",
"  c black",
". c None",
/* pixels */
"........................",
"........... ............",
"..........  ............",
".........   ............",
"........    ............",
".......        .........",
".......          .......",
"........    ..    ......",
".........   ....   .....",
"..........  .....  .....",
"........... .....   ....",
"..................  ....",
"..................  ....",
"....  ............  ....",
"....  ............  ....",
"....   ..........   ....",
".....  ..........  .....",
".....   ........   .....",
"......    ....    ......",
".......          .......",
".........      .........",
"........................",
"........................",
"........................"
};
