<?xml version="1.0" ?><svg height="24" id="svg2" inkscape:version="0.91 r13725" sodipodi:docname="ic_content_copy_bug_24px.svg" version="1.1" viewBox="0 0 24 24" width="24" xmlns="http://www.w3.org/2000/svg" xmlns:cc="http://creativecommons.org/ns#" xmlns:dc="http://purl.org/dc/elements/1.1/" xmlns:inkscape="http://www.inkscape.org/namespaces/inkscape" xmlns:rdf="http://www.w3.org/1999/02/22-rdf-syntax-ns#" xmlns:sodipodi="http://sodipodi.sourceforge.net/DTD/sodipodi-0.dtd" xmlns:svg="http://www.w3.org/2000/svg">
  <metadata id="metadata10">
    <rdf:RDF>
      <cc:Work rdf:about="">
        <dc:format>image/svg+xml</dc:format>
        <dc:type rdf:resource="http://purl.org/dc/dcmitype/StillImage"/>
        <dc:title/>
      </cc:Work>
    </rdf:RDF>
  </metadata>
  <defs id="defs8"/>
  <sodipodi:namedview bordercolor="#666666" borderopacity="1" gridtolerance="10" guidetolerance="10" id="namedview6" inkscape:current-layer="svg2" inkscape:cx="14.732357" inkscape:cy="10.342793" inkscape:pageopacity="0" inkscape:pageshadow="2" inkscape:window-height="1028" inkscape:window-maximized="1" inkscape:window-width="1920" inkscape:window-x="0" inkscape:window-y="0" inkscape:zoom="50.61706" objecttolerance="10" pagecolor="#ffffff" showgrid="true">
    <inkscape:grid id="grid4149" type="xygrid"/>
  </sodipodi:namedview>
  <path d="M16 1H4c-1.1 0-2 .9-2 2v14h2V3h12V1zm3 4H8c-1.1 0-2 .9-2 2v14c0 1.1.9 2 2 2h11c1.1 0 2-.9 2-2V7c0-1.1-.9-2-2-2zm0 16H8V7h11v14z" id="path4" style="fill:#FFFFFF"/>
  <path d="m 16.999998,11 -1.404997,0 c -0.225,-0.39 -0.535,-0.725 -0.909999,-0.98 L 15.5,9.205 14.795002,8.5000003 13.710004,9.585 c -0.23,-0.055 -0.465,-0.085 -0.71,-0.085 -0.244999,0 -0.479999,0.03 -0.704999,0.085 L 11.205006,8.5000003 10.500007,9.205 l 0.81,0.815 C 10.940008,10.275 10.630008,10.61 10.405009,11 L 9,11 l 0,1 1.045009,0 c -0.025,0.165 -0.045,0.33 -0.045,0.5 l 0,0.5 -1.000008,0 0,1 1.000009,0 0,0.5 c 0,0.17 0.02,0.335 0.045,0.5 L 9,15 l 0,1 1.405009,0 c 0.519998,0.895 1.484997,1.5 2.594996,1.5 1.109999,0 2.074997,-0.605 2.594996,-1.5 L 17,16 17,15 15.955,15 C 15.98,14.835 16,14.67 16,14.5 l 0,-0.5 0.999999,0 0,-1 L 16,13 16,12.5 C 16,12.33 15.98,12.165 15.955,12 L 17,12 17,11 Z m -2.999995,4 -1.999997,0 0,-1 1.999997,0 0,1 z m 0,-2 -1.999997,0 0,-1 1.999997,0 0,1 z" id="path4140" inkscape:connector-curvature="0" style="fill:#FFFFFF"/>
</svg>