<?xml version="1.0" ?><svg height="24" id="svg2" version="1.1" viewBox="0 0 24 24" width="24" xmlns="http://www.w3.org/2000/svg" xmlns:cc="http://creativecommons.org/ns#" xmlns:dc="http://purl.org/dc/elements/1.1/" xmlns:rdf="http://www.w3.org/1999/02/22-rdf-syntax-ns#" xmlns:svg="http://www.w3.org/2000/svg">
  <defs id="defs8"/>
  <path d="M 12,2 C 7.0294373,2 3,5 3,11 l 0,11 3,-3 3,3 3,-3 3,3 3,-3 3,3 0,-11 C 21,5 16.970563,2 12,2 m -1,6 c 1.104569,0 2,0.8954305 2,2 0,1.104569 -0.895431,2 -2,2 C 9.8954305,12 9,11.104569 9,10 9,8.8954305 9.8954305,8 11,8 m 6,0 c 1.104569,0 2,0.8954305 2,2 0,1.104569 -0.895431,2 -2,2 -1.104569,0 -2,-0.895431 -2,-2 0,-1.1045695 0.895431,-2 2,-2 z" id="path4" style="fill:#FFFFFF"/>
</svg>