/* XPM */
static char *ghost[] = {
/* columns rows colors chars-per-pixel */
"24 24 2 1 ",
"  c white",
". c None",
/* pixels */
"........................",
"........................",
".........      .........",
".......          .......",
".....              .....",
".....              .....",
"....                ....",
"....                ....",
"...       ..    ..   ...",
"...      ....  ....  ...",
"...      ....  ....  ...",
"...       ..    ..   ...",
"...                  ...",
"...                  ...",
"...                  ...",
"...                  ...",
"...                  ...",
"...                  ...",
"...                  ...",
"...  ..    ..    ..  ...",
"... ....  ....  .... ...",
"... ....  ....  .... ...",
"........................",
"........................"
};
