<?xml version="1.0" ?><svg height="24" id="svg2" version="1.1" viewBox="0 0 24 24" width="24" xmlns="http://www.w3.org/2000/svg" xmlns:cc="http://creativecommons.org/ns#" xmlns:dc="http://purl.org/dc/elements/1.1/" xmlns:rdf="http://www.w3.org/1999/02/22-rdf-syntax-ns#" xmlns:svg="http://www.w3.org/2000/svg">
  <metadata id="metadata10">
    <rdf:RDF>
      <cc:Work rdf:about="">
        <dc:format>image/svg+xml</dc:format>
        <dc:type rdf:resource="http://purl.org/dc/dcmitype/StillImage"/>
        <dc:title/>
      </cc:Work>
    </rdf:RDF>
  </metadata>
  <defs id="defs8"/>
  <path d="m 8,19 3,0 0,4 2,0 0,-4 3,0 -4,-4 -4,4 z" id="path4144" style="fill:#FFFFFF;stroke:#FFFFFF;stroke-dasharray:none;stroke-miterlimit:4;stroke-opacity:1;stroke-width:2"/>
  <path d="M 10 0 L 10 4 L 5.5859375 4 L 12 10.414062 L 18.414062 4 L 16 4 L 14 4 L 14 0 L 10 0 z M 11 1 L 13 1 L 13 5 L 16 5 L 12 9 L 8 5 L 11 5 L 11 1 z " id="path4142" style="color:#000000;fill:#FFFFFF;fill-opacity:1"/>
  <path d="m 2,11 0,2 20,0 0,-2 -20,0 z" id="path4" style="fill:#FFFFFF"/>
</svg>