/* XPM */
static char *lookup_definition[] = {
/* columns rows colors chars-per-pixel */
"24 24 2 1 ",
"  c white",
". c None",
/* pixels */
"........................",
"........................",
".....          .........",
"....            ........",
"....         .   .......",
"....         ..   ......",
"....         ...   .....",
"....         ....   ....",
"....         .....  ....",
"....                ....",
"....                ....",
"....                ....",
"....    ........    ....",
"....    ........    ....",
"....                ....",
"....                ....",
"....    ........    ....",
"....    ........    ....",
"....                ....",
"....                ....",
"....                ....",
".....              .....",
"........................",
"........................"
};
