/* XPM */
static char *switch_to_implementation[] = {
/* columns rows colors chars-per-pixel */
"24 24 2 1 ",
"  c white",
". c None",
/* pixels */
"........................",
"........................",
"........................",
"........................",
"........................",
"........................",
".......  ......  .......",
"......   ......   ......",
".....   ........   .....",
"....   ..........   ....",
"...   ............   ...",
"..   ..............   ..",
"...  ..............  ...",
"....  ............  ....",
".....  ..........  .....",
"......  ........  ......",
"......   ......   ......",
".......  ......  .......",
"........................",
"........................",
"........................",
"........................",
"........................",
"........................"
};
