/* XPM */
static char *switch_to_rst[] = {
/* columns rows colors chars-per-pixel */
"24 24 2 1 ",
"  c white",
". c None",
/* pixels */
"........................",
"........................",
"........................",
".................  .....",
"................    ....",
"................     ...",
".................    ...",
".............  ...  ....",
"............    ........",
"...........      .......",
"..........       .......",
".........       ........",
"........       .........",
".......       ..........",
"......       ...........",
".....       ............",
"....       .............",
"...       ..............",
"...      ...............",
"...     ................",
"...    .................",
"........................",
"........................",
"........................"
};
